<svg width="260" height="53" viewBox="0 0 260 53" fill="none" xmlns="http://www.w3.org/2000/svg">
<g clip-path="url(#clip0_2_2249)">
<path d="M3.71101 44H10.7891V33.3359H17.3048C24.4298 33.3359 29.1876 28.7422 29.1876 21.7812V21.7344C29.1876 14.7734 24.4298 10.1797 17.3048 10.1797H3.71101V44ZM15.5704 15.7812C19.6251 15.7812 22.0157 17.9141 22.0157 21.7578V21.8047C22.0157 25.6484 19.6251 27.8047 15.5704 27.8047H10.7891V15.7812H15.5704ZM32.653 44H39.4967V29.9375C39.4967 26.2812 41.4655 24.2656 44.8405 24.2656C45.8248 24.2656 46.7623 24.4062 47.3248 24.6406V18.6172C46.8092 18.4766 46.1061 18.3594 45.3561 18.3594C42.4264 18.3594 40.3873 20.1641 39.6373 23.2578H39.4967V18.875H32.653V44ZM60.6808 44.5156C68.2746 44.5156 73.1261 39.6406 73.1261 31.4375V31.3906C73.1261 23.2578 68.1808 18.3594 60.6574 18.3594C53.1574 18.3594 48.2355 23.3047 48.2355 31.3906V31.4375C48.2355 39.6172 53.0402 44.5156 60.6808 44.5156ZM60.7043 39.1484C57.3293 39.1484 55.1965 36.3594 55.1965 31.4375V31.3906C55.1965 26.5391 57.3527 23.7266 60.6574 23.7266C63.9855 23.7266 66.1652 26.5391 66.1652 31.3906V31.4375C66.1652 36.3359 64.0324 39.1484 60.7043 39.1484ZM79.3806 44.3984C81.49 44.3984 83.1775 42.7109 83.1775 40.6016C83.1775 38.4688 81.49 36.8047 79.3806 36.8047C77.2478 36.8047 75.5837 38.4688 75.5837 40.6016C75.5837 42.7109 77.2478 44.3984 79.3806 44.3984ZM94.3973 44H109.374C116.593 44 121.069 40.2969 121.069 34.3672V34.3203C121.069 29.8906 117.671 26.5625 112.96 26.2109V26.0703C116.686 25.5781 119.499 22.4141 119.499 18.7109V18.6641C119.499 13.4609 115.491 10.1797 109.116 10.1797H94.3973V44ZM107.288 15.4297C110.593 15.4297 112.538 16.9766 112.538 19.6719V19.7188C112.538 22.6484 110.405 24.3125 106.421 24.3125H101.475V15.4297H107.288ZM107.264 29.1172C111.6 29.1172 113.85 30.7812 113.85 33.875V33.9219C113.85 37.0625 111.624 38.7266 107.569 38.7266H101.475V29.1172H107.264ZM135.808 44.5156C142.98 44.5156 146.449 40.2734 147.222 36.5703L147.292 36.3125H141.011L140.964 36.4531C140.472 37.8594 138.761 39.4062 135.949 39.4062C132.456 39.4062 130.277 37.0625 130.206 33.0547H147.503V30.9453C147.503 23.3516 142.886 18.3594 135.527 18.3594C128.167 18.3594 123.456 23.4688 123.456 31.4609V31.4844C123.456 39.5234 128.12 44.5156 135.808 44.5156ZM135.644 23.4688C138.48 23.4688 140.519 25.2734 140.941 28.7422H130.277C130.722 25.3438 132.831 23.4688 135.644 23.4688ZM153.898 52.2734C159.476 52.2734 162.851 50.375 164.82 44.4453L173.445 18.875H166.226L160.906 38.5156H160.719L155.422 18.875H147.898L156.781 44L156.476 44.8203C155.867 46.5312 154.742 47.1172 152.703 47.1172C151.695 47.1172 150.898 46.9766 150.406 46.8828V51.9688C151.203 52.1094 152.562 52.2734 153.898 52.2734ZM186.332 44.5156C193.926 44.5156 198.778 39.6406 198.778 31.4375V31.3906C198.778 23.2578 193.832 18.3594 186.309 18.3594C178.809 18.3594 173.887 23.3047 173.887 31.3906V31.4375C173.887 39.6172 178.692 44.5156 186.332 44.5156ZM186.356 39.1484C182.981 39.1484 180.848 36.3594 180.848 31.4375V31.3906C180.848 26.5391 183.004 23.7266 186.309 23.7266C189.637 23.7266 191.817 26.5391 191.817 31.3906V31.4375C191.817 36.3359 189.684 39.1484 186.356 39.1484ZM202.173 44H209.017V29.5625C209.017 26.2812 210.962 24.0312 214.032 24.0312C217.103 24.0312 218.649 25.9062 218.649 29.1875V44H225.493V27.7812C225.493 21.8984 222.353 18.3594 216.821 18.3594C213.024 18.3594 210.446 20.1172 209.157 23H209.017V18.875H202.173V44ZM238.99 44.5156C242.623 44.5156 245.388 42.6875 246.724 39.7109H246.865V44H253.709V10.1797H246.865V23.2344H246.724C245.365 20.1875 242.552 18.3594 238.99 18.3594C232.662 18.3594 228.771 23.2344 228.771 31.4141V31.4375C228.771 39.5938 232.662 44.5156 238.99 44.5156ZM241.287 38.8438C237.865 38.8438 235.732 36.0078 235.732 31.4375V31.4141C235.732 26.8203 237.888 24.0312 241.287 24.0312C244.591 24.0312 246.888 26.8906 246.888 31.4141V31.4375C246.888 35.9844 244.615 38.8438 241.287 38.8438ZM261.697 44.3984C263.807 44.3984 265.494 42.7109 265.494 40.6016C265.494 38.4688 263.807 36.8047 261.697 36.8047C259.565 36.8047 257.9 38.4688 257.9 40.6016C257.9 42.7109 259.565 44.3984 261.697 44.3984Z" fill="url(#paint0_linear_2_2249)"/>
</g>
<defs>
<linearGradient id="paint0_linear_2_2249" x1="134.192" y1="-2" x2="134.192" y2="56" gradientUnits="userSpaceOnUse">
<stop stop-color="#FFB6FF"/>
<stop offset="1" stop-color="#B344FF"/>
</linearGradient>
<clipPath id="clip0_2_2249">
<rect width="258.266" height="52.5" fill="white" transform="translate(0.859375 0.5)"/>
</clipPath>
</defs>
</svg>
